<?xml version="1.0" encoding="utf-8"?>
<!-- Generator: Adobe Illustrator 21.0.2, SVG Export Plug-In . SVG Version: 6.00 Build 0)  -->
<svg version="1.1" id="Слой_1" xmlns="http://www.w3.org/2000/svg" xmlns:xlink="http://www.w3.org/1999/xlink" x="0px" y="0px"
	 viewBox="0 0 128 128" style="enable-background:new 0 0 128 128;" xml:space="preserve">
<style type="text/css">
	.st0{fill:#DC3737;}
</style>
<title></title>
<g>
	
		<image style="overflow:visible;opacity:0.68;" width="610" height="611" xlink:href="AEEC7B0C8567ED62.png"  transform="matrix(0.24 0 0 0.24 -8.04 -8.2)">
	</image>
	<g>
		<path class="st0" d="M120,56c-3.6,0-6.8,2.5-7.7,6H102c-0.5-8.7-3.9-16.9-9.7-23.4l7.3-7.3c3.8,2.2,8.7,1,11-2.8
			c2.2-3.8,1-8.7-2.8-11s-8.7-1-11,2.8c-1.5,2.5-1.5,5.6,0,8.1l-7.4,7.3C82.9,29.9,74.7,26.5,66,26V15.7c4.3-1.1,6.9-5.5,5.7-9.7
			S66.3-0.9,62,0.2s-6.9,5.5-5.7,9.7c0.7,2.8,2.9,5,5.7,5.7V26c-8.7,0.5-16.9,3.9-23.4,9.7l-7.3-7.3c2.2-3.8,1-8.7-2.8-11
			s-8.7-1-11,2.8s-1,8.7,2.8,11c2.5,1.5,5.6,1.5,8.1,0l7.3,7.3C29.9,45.1,26.5,53.3,26,62H15.7c-1.1-4.3-5.5-6.9-9.7-5.7
			c-4.3,1.1-6.9,5.5-5.7,9.7s5.5,6.9,9.7,5.7c2.8-0.7,5-2.9,5.7-5.7H26c0.5,8.7,3.9,16.9,9.7,23.4l-7.3,7.3c-3.8-2.2-8.7-1-11,2.8
			s-1,8.7,2.8,11s8.7,1,11-2.8c1.5-2.5,1.5-5.6,0-8.1l7.3-7.3c6.4,5.8,14.7,9.3,23.4,9.8v10.3c-4.3,1.1-6.9,5.5-5.7,9.7
			c1.1,4.3,5.5,6.9,9.7,5.7c4.3-1.1,6.9-5.5,5.7-9.7c-0.7-2.8-2.9-5-5.7-5.7V102c8.7-0.5,16.9-3.9,23.4-9.7l7.3,7.3
			c-2.2,3.8-1,8.7,2.8,11c3.8,2.2,8.7,1,11-2.8c2.2-3.8,1-8.7-2.8-11c-2.5-1.5-5.6-1.5-8.1,0l-7.3-7.4c5.8-6.4,9.3-14.7,9.8-23.4
			h10.3c1.1,4.3,5.5,6.9,9.7,5.7c4.3-1.1,6.9-5.5,5.7-9.7C126.9,58.4,123.7,56,120,56z M100.8,21.6c1.6-1.6,4.1-1.6,5.7,0
			s1.6,4.1,0,5.7c-1.6,1.6-4.1,1.6-5.7,0c-0.8-0.7-1.2-1.8-1.2-2.8C99.6,23.3,100,22.3,100.8,21.6z M60,8c0-2.2,1.8-4,4-4
			c2.2,0,4,1.8,4,4s-1.8,4-4,4C61.8,12,60,10.2,60,8z M21.6,27.2c-1.6-1.6-1.6-4.1,0-5.7s4.1-1.6,5.7,0l0,0c1.6,1.6,1.6,4.1,0,5.7
			S23.1,28.8,21.6,27.2z M8,68c-2.2,0-4-1.8-4-4c0-2.2,1.8-4,4-4s4,1.8,4,4C12,66.2,10.2,68,8,68z M27.2,106.4
			c-1.6,1.6-4.1,1.6-5.7,0s-1.6-4.1,0-5.7l0,0c1.6-1.6,4.1-1.6,5.7,0S28.8,104.9,27.2,106.4z M68,120c0,2.2-1.8,4-4,4
			c-2.2,0-4-1.8-4-4s1.8-4,4-4C66.2,116,68,117.8,68,120z M106.4,100.8c1.6,1.6,1.6,4.1,0,5.7c-1.6,1.6-4.1,1.6-5.7,0
			s-1.6-4.1,0-5.7S104.9,99.2,106.4,100.8z M64,98c-18.8,0-34-15.2-34-34s15.2-34,34-34s34,15.2,34,34S82.8,98,64,98L64,98z M120,68
			c-2.2,0-4-1.8-4-4c0-2.2,1.8-4,4-4s4,1.8,4,4C124,66.2,122.2,68,120,68z"/>
	</g>
</g>
<g>
	
		<image style="overflow:visible;opacity:0.68;" width="143" height="143" xlink:href="AEEC7B0C8567ED66.png"  transform="matrix(0.24 0 0 0.24 29.88 47.96)">
	</image>
	<g>
		<path class="st0" d="M40.3,58.3c-3.1,3.1-3.1,8.2,0,11.3c3.1,3.1,8.2,3.1,11.3,0c3.1-3.1,3.1-8.2,0-11.3
			C48.5,55.2,43.5,55.2,40.3,58.3C40.3,58.3,40.3,58.3,40.3,58.3z M48.8,66.8c-1.6,1.6-4.1,1.6-5.7,0c-1.6-1.6-1.6-4.1,0-5.7
			c1.6-1.6,4.1-1.6,5.7,0C50.4,62.7,50.4,65.3,48.8,66.8C48.8,66.8,48.8,66.8,48.8,66.8z"/>
	</g>
</g>
<g>
	
		<image style="overflow:visible;opacity:0.68;" width="144" height="142" xlink:href="AEEC7B0C8567ED61.png"  transform="matrix(0.24 0 0 0.24 47.88 29.96)">
	</image>
	<g>
		<path class="st0" d="M58.3,40.3c-3.1,3.1-3.1,8.2,0,11.3c3.1,3.1,8.2,3.1,11.3,0c3.1-3.1,3.1-8.2,0-11.3
			C66.5,37.2,61.5,37.2,58.3,40.3C58.3,40.3,58.3,40.3,58.3,40.3z M66.8,48.8c-1.6,1.6-4.1,1.6-5.7,0c-1.6-1.6-1.6-4.1,0-5.7
			c1.6-1.6,4.1-1.6,5.7,0C68.4,44.7,68.4,47.3,66.8,48.8C66.8,48.8,66.8,48.8,66.8,48.8z"/>
	</g>
</g>
<g>
	
		<image style="overflow:visible;opacity:0.68;" width="144" height="143" xlink:href="AEEC7B0C8567ED63.png"  transform="matrix(0.24 0 0 0.24 65.88 47.96)">
	</image>
	<g>
		<path class="st0" d="M76.3,58.3c-3.1,3.1-3.1,8.2,0,11.3c3.1,3.1,8.2,3.1,11.3,0c3.1-3.1,3.1-8.2,0-11.3
			C84.5,55.2,79.5,55.2,76.3,58.3C76.3,58.3,76.3,58.3,76.3,58.3z M84.8,66.8c-1.6,1.6-4.1,1.6-5.7,0s-1.6-4.1,0-5.7
			c1.6-1.6,4.1-1.6,5.7,0C86.4,62.7,86.4,65.3,84.8,66.8C84.8,66.8,84.8,66.8,84.8,66.8z"/>
	</g>
</g>
<g>
	
		<image style="overflow:visible;opacity:0.68;" width="144" height="143" xlink:href="AEEC7B0C8567ED60.png"  transform="matrix(0.24 0 0 0.24 47.88 65.96)">
	</image>
	<g>
		<path class="st0" d="M58.3,76.3c-3.1,3.1-3.1,8.2,0,11.3c3.1,3.1,8.2,3.1,11.3,0c3.1-3.1,3.1-8.2,0-11.3
			C66.5,73.2,61.5,73.2,58.3,76.3C58.3,76.3,58.3,76.3,58.3,76.3z M66.8,84.8c-1.6,1.6-4.1,1.6-5.7,0s-1.6-4.1,0-5.7
			c1.6-1.6,4.1-1.6,5.7,0C68.4,80.7,68.4,83.3,66.8,84.8C66.8,84.8,66.8,84.8,66.8,84.8z"/>
	</g>
</g>
</svg>
